<mxfile host="app.diagrams.net" modified="2024-07-10T02:00:22.513Z" agent="Mozilla/5.0 (Windows NT 10.0; Win64; x64) AppleWebKit/537.36 (KHTML, like Gecko) Chrome/126.0.0.0 Safari/537.36" etag="4imDICUI90hXBqnWTx7n" version="24.6.4" type="google">
  <diagram id="C5RBs43oDa-KdzZeNtuy" name="Page-1">
    <mxGraphModel dx="3694" dy="2433" grid="1" gridSize="10" guides="1" tooltips="1" connect="1" arrows="1" fold="1" page="1" pageScale="1" pageWidth="827" pageHeight="1169" math="0" shadow="0">
      <root>
        <mxCell id="WIyWlLk6GJQsqaUBKTNV-0" />
        <mxCell id="WIyWlLk6GJQsqaUBKTNV-1" parent="WIyWlLk6GJQsqaUBKTNV-0" />
        <mxCell id="zkfFHV4jXpPFQw0GAbJ--0" value="View" style="swimlane;fontStyle=2;align=center;verticalAlign=top;childLayout=stackLayout;horizontal=1;startSize=26;horizontalStack=0;resizeParent=1;resizeLast=0;collapsible=1;marginBottom=0;rounded=0;shadow=0;strokeWidth=1;" parent="WIyWlLk6GJQsqaUBKTNV-1" vertex="1">
          <mxGeometry x="-230" y="230" width="340" height="270" as="geometry">
            <mxRectangle x="230" y="140" width="160" height="26" as="alternateBounds" />
          </mxGeometry>
        </mxCell>
        <mxCell id="zkfFHV4jXpPFQw0GAbJ--1" value="-  textFieldCelciusRemote: JTextfield&#xa;-  textFieldFahrenheitRemote: JTextfield&#xa;-  labelCelciusRemote: Jlabel&#xa;-  labelFahrenheitRemote: Jlabel&#xa;-  panelRemote: Jpanel&#xa;-  MenubarRemote:jMenuBar&#xa;-  ModelRemote: Model&#xa;- ControllerRemote: Controller" style="text;align=left;verticalAlign=top;spacingLeft=4;spacingRight=4;overflow=hidden;rotatable=0;points=[[0,0.5],[1,0.5]];portConstraint=eastwest;" parent="zkfFHV4jXpPFQw0GAbJ--0" vertex="1">
          <mxGeometry y="26" width="340" height="124" as="geometry" />
        </mxCell>
        <mxCell id="zkfFHV4jXpPFQw0GAbJ--4" value="" style="line;html=1;strokeWidth=1;align=left;verticalAlign=middle;spacingTop=-1;spacingLeft=3;spacingRight=3;rotatable=0;labelPosition=right;points=[];portConstraint=eastwest;" parent="zkfFHV4jXpPFQw0GAbJ--0" vertex="1">
          <mxGeometry y="150" width="340" height="8" as="geometry" />
        </mxCell>
        <mxCell id="zkfFHV4jXpPFQw0GAbJ--24" value="+ getTextFieldCelciusRemote()&#xa;+ getTextFieldFahrenheitRemote()&#xa;&#xa;+ View(controllerRemote : Controller ,modelRemote : Model)&#xa;" style="text;align=left;verticalAlign=top;spacingLeft=4;spacingRight=4;overflow=hidden;rotatable=0;points=[[0,0.5],[1,0.5]];portConstraint=eastwest;" parent="zkfFHV4jXpPFQw0GAbJ--0" vertex="1">
          <mxGeometry y="158" width="340" height="82" as="geometry" />
        </mxCell>
        <mxCell id="zkfFHV4jXpPFQw0GAbJ--6" value="Controller" style="swimlane;fontStyle=0;align=center;verticalAlign=top;childLayout=stackLayout;horizontal=1;startSize=26;horizontalStack=0;resizeParent=1;resizeLast=0;collapsible=1;marginBottom=0;rounded=0;shadow=0;strokeWidth=1;" parent="WIyWlLk6GJQsqaUBKTNV-1" vertex="1">
          <mxGeometry x="130" y="-80" width="290" height="230" as="geometry">
            <mxRectangle x="130" y="380" width="160" height="26" as="alternateBounds" />
          </mxGeometry>
        </mxCell>
        <mxCell id="Cn6bG1rnJBvVWITG4E_c-0" value="- ModelRemote:Model&#xa;- ViewRemote: View" style="text;align=left;verticalAlign=top;spacingLeft=4;spacingRight=4;overflow=hidden;rotatable=0;points=[[0,0.5],[1,0.5]];portConstraint=eastwest;" parent="zkfFHV4jXpPFQw0GAbJ--6" vertex="1">
          <mxGeometry y="26" width="290" height="54" as="geometry" />
        </mxCell>
        <mxCell id="zkfFHV4jXpPFQw0GAbJ--9" value="" style="line;html=1;strokeWidth=1;align=left;verticalAlign=middle;spacingTop=-1;spacingLeft=3;spacingRight=3;rotatable=0;labelPosition=right;points=[];portConstraint=eastwest;" parent="zkfFHV4jXpPFQw0GAbJ--6" vertex="1">
          <mxGeometry y="80" width="290" height="8" as="geometry" />
        </mxCell>
        <mxCell id="zkfFHV4jXpPFQw0GAbJ--11" value="+ buildPanel() : void&#xa;+ buildMenu() : void&#xa;Controller(viewRemote : View, modelRemote Model)&#xa;+ Update() : void&#xa;" style="text;align=left;verticalAlign=top;spacingLeft=4;spacingRight=4;overflow=hidden;rotatable=0;points=[[0,0.5],[1,0.5]];portConstraint=eastwest;" parent="zkfFHV4jXpPFQw0GAbJ--6" vertex="1">
          <mxGeometry y="88" width="290" height="72" as="geometry" />
        </mxCell>
        <mxCell id="zkfFHV4jXpPFQw0GAbJ--13" value="Model" style="swimlane;fontStyle=0;align=center;verticalAlign=top;childLayout=stackLayout;horizontal=1;startSize=26;horizontalStack=0;resizeParent=1;resizeLast=0;collapsible=1;marginBottom=0;rounded=0;shadow=0;strokeWidth=1;" parent="WIyWlLk6GJQsqaUBKTNV-1" vertex="1">
          <mxGeometry x="440" y="300" width="160" height="130" as="geometry">
            <mxRectangle x="340" y="380" width="170" height="26" as="alternateBounds" />
          </mxGeometry>
        </mxCell>
        <mxCell id="zkfFHV4jXpPFQw0GAbJ--14" value="- result: double&#xa;- currentConversion : String" style="text;align=left;verticalAlign=top;spacingLeft=4;spacingRight=4;overflow=hidden;rotatable=0;points=[[0,0.5],[1,0.5]];portConstraint=eastwest;" parent="zkfFHV4jXpPFQw0GAbJ--13" vertex="1">
          <mxGeometry y="26" width="160" height="44" as="geometry" />
        </mxCell>
        <mxCell id="zkfFHV4jXpPFQw0GAbJ--15" value="" style="line;html=1;strokeWidth=1;align=left;verticalAlign=middle;spacingTop=-1;spacingLeft=3;spacingRight=3;rotatable=0;labelPosition=right;points=[];portConstraint=eastwest;" parent="zkfFHV4jXpPFQw0GAbJ--13" vertex="1">
          <mxGeometry y="70" width="160" height="10" as="geometry" />
        </mxCell>
        <mxCell id="zcCDX_Tk-eyO_6ode7Rr-9" value="&lt;div style=&quot;&quot;&gt;&lt;br&gt;&lt;/div&gt;&lt;div style=&quot;&quot;&gt;&lt;span style=&quot;text-wrap: nowrap;&quot;&gt;+chuyenCSangF(): void&lt;/span&gt;&lt;/div&gt;&lt;div style=&quot;&quot;&gt;&lt;span style=&quot;text-wrap: nowrap;&quot;&gt;+chuy&lt;/span&gt;&lt;span style=&quot;background-color: initial; text-wrap: nowrap;&quot;&gt;enFSangC&lt;/span&gt;&lt;span style=&quot;background-color: initial; text-wrap: nowrap;&quot;&gt;(): void&lt;/span&gt;&lt;/div&gt;&lt;div style=&quot;&quot;&gt;&lt;span style=&quot;text-wrap: nowrap;&quot;&gt;+getResult(): double&lt;/span&gt;&lt;/div&gt;" style="text;html=1;align=left;verticalAlign=middle;whiteSpace=wrap;rounded=0;" parent="zkfFHV4jXpPFQw0GAbJ--13" vertex="1">
          <mxGeometry y="80" width="160" height="40" as="geometry" />
        </mxCell>
        <mxCell id="ctZ_hqL-4-48TXiikLDh-3" value="&lt;&lt;Interface&gt;&gt;&#xa;Subriber" style="swimlane;fontStyle=0;align=center;verticalAlign=top;childLayout=stackLayout;horizontal=1;startSize=45;horizontalStack=0;resizeParent=1;resizeLast=0;collapsible=1;marginBottom=0;rounded=0;shadow=0;strokeWidth=1;" parent="WIyWlLk6GJQsqaUBKTNV-1" vertex="1">
          <mxGeometry x="-250" y="531" width="160" height="109" as="geometry">
            <mxRectangle x="340" y="380" width="170" height="26" as="alternateBounds" />
          </mxGeometry>
        </mxCell>
        <mxCell id="ctZ_hqL-4-48TXiikLDh-4" value="+" style="text;align=left;verticalAlign=top;spacingLeft=4;spacingRight=4;overflow=hidden;rotatable=0;points=[[0,0.5],[1,0.5]];portConstraint=eastwest;" parent="ctZ_hqL-4-48TXiikLDh-3" vertex="1">
          <mxGeometry y="45" width="160" height="24" as="geometry" />
        </mxCell>
        <mxCell id="ctZ_hqL-4-48TXiikLDh-5" value="" style="line;html=1;strokeWidth=1;align=left;verticalAlign=middle;spacingTop=-1;spacingLeft=3;spacingRight=3;rotatable=0;labelPosition=right;points=[];portConstraint=eastwest;" parent="ctZ_hqL-4-48TXiikLDh-3" vertex="1">
          <mxGeometry y="69" width="160" height="10" as="geometry" />
        </mxCell>
        <mxCell id="ctZ_hqL-4-48TXiikLDh-6" value="&lt;div style=&quot;&quot;&gt;+update():void&lt;/div&gt;" style="text;html=1;align=left;verticalAlign=middle;whiteSpace=wrap;rounded=0;" parent="ctZ_hqL-4-48TXiikLDh-3" vertex="1">
          <mxGeometry y="79" width="160" height="30" as="geometry" />
        </mxCell>
        <mxCell id="ctZ_hqL-4-48TXiikLDh-11" value="Publisher" style="swimlane;fontStyle=0;align=center;verticalAlign=top;childLayout=stackLayout;horizontal=1;startSize=26;horizontalStack=0;resizeParent=1;resizeLast=0;collapsible=1;marginBottom=0;rounded=0;shadow=0;strokeWidth=1;" parent="WIyWlLk6GJQsqaUBKTNV-1" vertex="1">
          <mxGeometry x="320" y="525.5" width="220" height="120" as="geometry">
            <mxRectangle x="340" y="380" width="170" height="26" as="alternateBounds" />
          </mxGeometry>
        </mxCell>
        <mxCell id="ctZ_hqL-4-48TXiikLDh-12" value="+ Subcribers : List&lt;Subcriber&gt;" style="text;align=left;verticalAlign=top;spacingLeft=4;spacingRight=4;overflow=hidden;rotatable=0;points=[[0,0.5],[1,0.5]];portConstraint=eastwest;" parent="ctZ_hqL-4-48TXiikLDh-11" vertex="1">
          <mxGeometry y="26" width="220" height="24" as="geometry" />
        </mxCell>
        <mxCell id="ctZ_hqL-4-48TXiikLDh-13" value="" style="line;html=1;strokeWidth=1;align=left;verticalAlign=middle;spacingTop=-1;spacingLeft=3;spacingRight=3;rotatable=0;labelPosition=right;points=[];portConstraint=eastwest;" parent="ctZ_hqL-4-48TXiikLDh-11" vertex="1">
          <mxGeometry y="50" width="220" height="10" as="geometry" />
        </mxCell>
        <mxCell id="ctZ_hqL-4-48TXiikLDh-14" value="&lt;div style=&quot;&quot;&gt;&lt;span style=&quot;text-wrap: nowrap;&quot;&gt;+ Subcribers(&lt;/span&gt;&lt;span style=&quot;text-wrap: nowrap; background-color: initial;&quot;&gt;Subcriber): void&lt;/span&gt;&lt;br&gt;&lt;/div&gt;&lt;div style=&quot;&quot;&gt;&lt;span style=&quot;text-wrap: nowrap; background-color: initial;&quot;&gt;+ unSubcribe(Subcr iber):void&lt;/span&gt;&lt;/div&gt;&lt;div style=&quot;&quot;&gt;&lt;span style=&quot;text-wrap: nowrap; background-color: initial;&quot;&gt;+ notifySubcribers(): void&lt;/span&gt;&lt;/div&gt;" style="text;html=1;align=left;verticalAlign=middle;whiteSpace=wrap;rounded=0;" parent="ctZ_hqL-4-48TXiikLDh-11" vertex="1">
          <mxGeometry y="60" width="220" height="50" as="geometry" />
        </mxCell>
        <mxCell id="ctZ_hqL-4-48TXiikLDh-15" value="Extends" style="endArrow=block;endSize=16;endFill=0;html=1;rounded=0;entryX=0.75;entryY=0;entryDx=0;entryDy=0;" parent="WIyWlLk6GJQsqaUBKTNV-1" target="ctZ_hqL-4-48TXiikLDh-11" edge="1">
          <mxGeometry width="160" relative="1" as="geometry">
            <mxPoint x="485" y="430" as="sourcePoint" />
            <mxPoint x="510" y="480" as="targetPoint" />
          </mxGeometry>
        </mxCell>
        <mxCell id="ctZ_hqL-4-48TXiikLDh-17" value="" style="endArrow=block;dashed=1;endFill=0;endSize=12;html=1;rounded=0;entryX=0.5;entryY=0;entryDx=0;entryDy=0;" parent="WIyWlLk6GJQsqaUBKTNV-1" target="ctZ_hqL-4-48TXiikLDh-3" edge="1">
          <mxGeometry width="160" relative="1" as="geometry">
            <mxPoint x="-170" y="500" as="sourcePoint" />
            <mxPoint x="510" y="480" as="targetPoint" />
          </mxGeometry>
        </mxCell>
        <mxCell id="PQG7Xo_OKDsl-XCQCLi8-3" value="" style="endArrow=open;endFill=1;endSize=12;html=1;rounded=0;" parent="WIyWlLk6GJQsqaUBKTNV-1" target="zkfFHV4jXpPFQw0GAbJ--13" edge="1">
          <mxGeometry width="160" relative="1" as="geometry">
            <mxPoint x="380" y="150" as="sourcePoint" />
            <mxPoint x="1009" y="170" as="targetPoint" />
          </mxGeometry>
        </mxCell>
        <mxCell id="uTx5zUfKtNHIQ65bxq1Z-5" value="Subcriber&amp;nbsp;" style="whiteSpace=wrap;html=1;fillColor=#e51400;fontColor=#ffffff;strokeColor=#B20000;" parent="WIyWlLk6GJQsqaUBKTNV-1" vertex="1">
          <mxGeometry x="10" y="225" width="80" height="20" as="geometry" />
        </mxCell>
        <mxCell id="uTx5zUfKtNHIQ65bxq1Z-6" value="&lt;div&gt;Publisher&lt;/div&gt;" style="whiteSpace=wrap;html=1;fillColor=#e51400;fontColor=#ffffff;strokeColor=#B20000;" parent="WIyWlLk6GJQsqaUBKTNV-1" vertex="1">
          <mxGeometry x="560" y="290" width="80" height="20" as="geometry" />
        </mxCell>
        <mxCell id="uTx5zUfKtNHIQ65bxq1Z-10" value="" style="endArrow=open;endFill=1;endSize=12;html=1;rounded=0;entryX=0.25;entryY=1;entryDx=0;entryDy=0;exitX=1.002;exitY=0.581;exitDx=0;exitDy=0;exitPerimeter=0;" parent="WIyWlLk6GJQsqaUBKTNV-1" source="zkfFHV4jXpPFQw0GAbJ--1" target="zkfFHV4jXpPFQw0GAbJ--6" edge="1">
          <mxGeometry width="160" relative="1" as="geometry">
            <mxPoint x="350" y="370" as="sourcePoint" />
            <mxPoint x="249.99500000000006" y="389.99800000000005" as="targetPoint" />
          </mxGeometry>
        </mxCell>
        <mxCell id="uTx5zUfKtNHIQ65bxq1Z-13" value="" style="endArrow=open;endFill=1;endSize=12;html=1;rounded=0;entryX=0;entryY=0.5;entryDx=0;entryDy=0;exitX=1.005;exitY=0.125;exitDx=0;exitDy=0;exitPerimeter=0;" parent="WIyWlLk6GJQsqaUBKTNV-1" source="zkfFHV4jXpPFQw0GAbJ--24" target="zcCDX_Tk-eyO_6ode7Rr-9" edge="1">
          <mxGeometry width="160" relative="1" as="geometry">
            <mxPoint x="214" y="411" as="sourcePoint" />
            <mxPoint x="600" y="385" as="targetPoint" />
          </mxGeometry>
        </mxCell>
        <mxCell id="uTx5zUfKtNHIQ65bxq1Z-7" value="" style="endArrow=open;endFill=1;endSize=12;html=1;rounded=0;exitX=0;exitY=0.5;exitDx=0;exitDy=0;entryX=0.681;entryY=-0.01;entryDx=0;entryDy=0;entryPerimeter=0;" parent="WIyWlLk6GJQsqaUBKTNV-1" source="zkfFHV4jXpPFQw0GAbJ--11" target="zkfFHV4jXpPFQw0GAbJ--0" edge="1">
          <mxGeometry width="160" relative="1" as="geometry">
            <mxPoint x="324.95" y="118" as="sourcePoint" />
            <mxPoint x="239.99500000000006" y="218.02800000000002" as="targetPoint" />
          </mxGeometry>
        </mxCell>
        <mxCell id="uTx5zUfKtNHIQ65bxq1Z-19" style="edgeStyle=orthogonalEdgeStyle;rounded=0;orthogonalLoop=1;jettySize=auto;html=1;exitX=0;exitY=0.25;exitDx=0;exitDy=0;entryX=1.029;entryY=0.906;entryDx=0;entryDy=0;entryPerimeter=0;" parent="WIyWlLk6GJQsqaUBKTNV-1" source="ctZ_hqL-4-48TXiikLDh-14" target="ctZ_hqL-4-48TXiikLDh-4" edge="1">
          <mxGeometry relative="1" as="geometry" />
        </mxCell>
        <mxCell id="2ZH400wWnDVM9ZmWSvQE-2" value="&lt;p style=&quot;margin:0px;margin-top:4px;text-align:center;&quot;&gt;&lt;b&gt;CommandProcessor&lt;/b&gt;&lt;/p&gt;&lt;hr size=&quot;1&quot; style=&quot;border-style:solid;&quot;&gt;&lt;p style=&quot;margin:0px;margin-left:4px;&quot;&gt;+ field: Type&lt;/p&gt;&lt;hr size=&quot;1&quot; style=&quot;border-style:solid;&quot;&gt;&lt;p style=&quot;margin:0px;margin-left:4px;&quot;&gt;+ execute(Command): void&lt;/p&gt;" style="verticalAlign=top;align=left;overflow=fill;html=1;whiteSpace=wrap;" parent="WIyWlLk6GJQsqaUBKTNV-1" vertex="1">
          <mxGeometry x="150" y="645.5" width="160" height="90" as="geometry" />
        </mxCell>
        <mxCell id="2ZH400wWnDVM9ZmWSvQE-3" value="&lt;p style=&quot;margin:0px;margin-top:4px;text-align:center;&quot;&gt;&lt;b&gt;Abstract Class&lt;/b&gt;&lt;/p&gt;&lt;p style=&quot;margin:0px;margin-top:4px;text-align:center;&quot;&gt;&lt;b&gt;&lt;i&gt;Command&lt;/i&gt;&lt;/b&gt;&lt;/p&gt;&lt;hr size=&quot;1&quot; style=&quot;border-style:solid;&quot;&gt;&lt;p style=&quot;margin:0px;margin-left:4px;&quot;&gt;- modelRemote: Model&lt;/p&gt;&lt;p style=&quot;margin:0px;margin-left:4px;&quot;&gt;- num1:double&lt;/p&gt;&lt;hr size=&quot;1&quot; style=&quot;border-style:solid;&quot;&gt;&lt;p style=&quot;margin:0px;margin-left:4px;&quot;&gt;+ &lt;i&gt;execute(): void&lt;/i&gt;&lt;/p&gt;" style="verticalAlign=top;align=left;overflow=fill;html=1;whiteSpace=wrap;" parent="WIyWlLk6GJQsqaUBKTNV-1" vertex="1">
          <mxGeometry x="550" y="680" width="160" height="135" as="geometry" />
        </mxCell>
        <mxCell id="2ZH400wWnDVM9ZmWSvQE-4" value="&lt;p style=&quot;margin:0px;margin-top:4px;text-align:center;&quot;&gt;&lt;b&gt;ConvertC2F&lt;/b&gt;&lt;/p&gt;&lt;hr size=&quot;1&quot; style=&quot;border-style:solid;&quot;&gt;&lt;p style=&quot;margin:0px;margin-left:4px;&quot;&gt;+ field: Type&lt;/p&gt;&lt;p style=&quot;margin:0px;margin-left:4px;&quot;&gt;&lt;br&gt;&lt;/p&gt;" style="verticalAlign=top;align=left;overflow=fill;html=1;whiteSpace=wrap;" parent="WIyWlLk6GJQsqaUBKTNV-1" vertex="1">
          <mxGeometry x="450" y="880" width="160" height="60" as="geometry" />
        </mxCell>
        <mxCell id="2ZH400wWnDVM9ZmWSvQE-5" value="Extends" style="endArrow=block;endSize=16;endFill=0;html=1;rounded=0;exitX=0.438;exitY=-0.013;exitDx=0;exitDy=0;exitPerimeter=0;entryX=0.5;entryY=1;entryDx=0;entryDy=0;" parent="WIyWlLk6GJQsqaUBKTNV-1" source="2ZH400wWnDVM9ZmWSvQE-4" target="2ZH400wWnDVM9ZmWSvQE-3" edge="1">
          <mxGeometry width="160" relative="1" as="geometry">
            <mxPoint x="230" y="840" as="sourcePoint" />
            <mxPoint x="390" y="840" as="targetPoint" />
          </mxGeometry>
        </mxCell>
        <mxCell id="2ZH400wWnDVM9ZmWSvQE-6" value="&lt;p style=&quot;margin:0px;margin-top:4px;text-align:center;&quot;&gt;&lt;b&gt;ConvertF2C&lt;/b&gt;&lt;/p&gt;&lt;hr size=&quot;1&quot; style=&quot;border-style:solid;&quot;&gt;&lt;p style=&quot;margin:0px;margin-left:4px;&quot;&gt;+ field: Type&lt;/p&gt;&lt;p style=&quot;margin:0px;margin-left:4px;&quot;&gt;&lt;br&gt;&lt;/p&gt;" style="verticalAlign=top;align=left;overflow=fill;html=1;whiteSpace=wrap;" parent="WIyWlLk6GJQsqaUBKTNV-1" vertex="1">
          <mxGeometry x="670" y="880" width="160" height="50" as="geometry" />
        </mxCell>
        <mxCell id="2ZH400wWnDVM9ZmWSvQE-7" value="Extends" style="endArrow=block;endSize=16;endFill=0;html=1;rounded=0;entryX=0.58;entryY=0.987;entryDx=0;entryDy=0;entryPerimeter=0;" parent="WIyWlLk6GJQsqaUBKTNV-1" source="2ZH400wWnDVM9ZmWSvQE-6" target="2ZH400wWnDVM9ZmWSvQE-3" edge="1">
          <mxGeometry width="160" relative="1" as="geometry">
            <mxPoint x="230" y="840" as="sourcePoint" />
            <mxPoint x="390" y="840" as="targetPoint" />
          </mxGeometry>
        </mxCell>
        <mxCell id="2ZH400wWnDVM9ZmWSvQE-8" style="edgeStyle=orthogonalEdgeStyle;rounded=0;orthogonalLoop=1;jettySize=auto;html=1;" parent="WIyWlLk6GJQsqaUBKTNV-1" source="2ZH400wWnDVM9ZmWSvQE-10" target="2ZH400wWnDVM9ZmWSvQE-2" edge="1">
          <mxGeometry relative="1" as="geometry" />
        </mxCell>
        <mxCell id="2ZH400wWnDVM9ZmWSvQE-9" style="edgeStyle=orthogonalEdgeStyle;rounded=0;orthogonalLoop=1;jettySize=auto;html=1;" parent="WIyWlLk6GJQsqaUBKTNV-1" source="2ZH400wWnDVM9ZmWSvQE-10" target="2ZH400wWnDVM9ZmWSvQE-11" edge="1">
          <mxGeometry relative="1" as="geometry" />
        </mxCell>
        <mxCell id="2ZH400wWnDVM9ZmWSvQE-10" value="singleton pattern" style="whiteSpace=wrap;html=1;fillColor=#e3c800;fontColor=#000000;strokeColor=#B09500;" parent="WIyWlLk6GJQsqaUBKTNV-1" vertex="1">
          <mxGeometry x="-70" y="745" width="120" height="40" as="geometry" />
        </mxCell>
        <mxCell id="2ZH400wWnDVM9ZmWSvQE-11" value="&lt;p style=&quot;margin:0px;margin-top:4px;text-align:center;&quot;&gt;&lt;b&gt;A&lt;/b&gt;&lt;/p&gt;&lt;hr size=&quot;1&quot; style=&quot;border-style:solid;&quot;&gt;&lt;p style=&quot;margin:0px;margin-left:4px;&quot;&gt;&lt;u&gt;- aRemote: A static&lt;/u&gt;&lt;/p&gt;&lt;hr size=&quot;1&quot; style=&quot;border-style:solid;&quot;&gt;&lt;p style=&quot;margin:0px;margin-left:4px;&quot;&gt;- A()&lt;/p&gt;&lt;p style=&quot;margin:0px;margin-left:4px;&quot;&gt;&lt;u&gt;+ makeA(): A&lt;/u&gt;&lt;/p&gt;" style="verticalAlign=top;align=left;overflow=fill;html=1;whiteSpace=wrap;" parent="WIyWlLk6GJQsqaUBKTNV-1" vertex="1">
          <mxGeometry x="-170" y="840" width="160" height="90" as="geometry" />
        </mxCell>
        <mxCell id="2ZH400wWnDVM9ZmWSvQE-12" value="Use" style="endArrow=open;endSize=12;dashed=1;html=1;rounded=0;entryX=0;entryY=0;entryDx=0;entryDy=0;exitX=0.999;exitY=0.391;exitDx=0;exitDy=0;exitPerimeter=0;" parent="WIyWlLk6GJQsqaUBKTNV-1" source="2ZH400wWnDVM9ZmWSvQE-2" target="2ZH400wWnDVM9ZmWSvQE-3" edge="1">
          <mxGeometry width="160" relative="1" as="geometry">
            <mxPoint x="346" y="810" as="sourcePoint" />
            <mxPoint x="370" y="790" as="targetPoint" />
          </mxGeometry>
        </mxCell>
        <mxCell id="2ZH400wWnDVM9ZmWSvQE-14" value="" style="endArrow=open;endFill=1;endSize=12;html=1;rounded=0;exitX=0.25;exitY=0;exitDx=0;exitDy=0;" parent="WIyWlLk6GJQsqaUBKTNV-1" source="2ZH400wWnDVM9ZmWSvQE-3" edge="1">
          <mxGeometry width="160" relative="1" as="geometry">
            <mxPoint x="677" y="670" as="sourcePoint" />
            <mxPoint x="590" y="430" as="targetPoint" />
          </mxGeometry>
        </mxCell>
        <mxCell id="2ZH400wWnDVM9ZmWSvQE-15" value="" style="endArrow=open;endFill=1;endSize=12;html=1;rounded=0;exitX=0.5;exitY=1;exitDx=0;exitDy=0;entryX=0.843;entryY=-0.002;entryDx=0;entryDy=0;entryPerimeter=0;" parent="WIyWlLk6GJQsqaUBKTNV-1" source="zkfFHV4jXpPFQw0GAbJ--6" target="2ZH400wWnDVM9ZmWSvQE-2" edge="1">
          <mxGeometry width="160" relative="1" as="geometry">
            <mxPoint x="570" y="850" as="sourcePoint" />
            <mxPoint x="720" y="440" as="targetPoint" />
          </mxGeometry>
        </mxCell>
      </root>
    </mxGraphModel>
  </diagram>
</mxfile>
